<mxfile host="app.diagrams.net" modified="2024-03-31T05:39:20.504Z" agent="Mozilla/5.0 (Windows NT 10.0; Win64; x64) AppleWebKit/537.36 (KHTML, like Gecko) Chrome/120.0.0.0 Safari/537.36" etag="3ZEQKMuQfJhOwGu7jxMD" version="24.2.1" type="github">
  <diagram id="C5RBs43oDa-KdzZeNtuy" name="Page-1">
    <mxGraphModel dx="2571" dy="1084" grid="1" gridSize="10" guides="1" tooltips="1" connect="1" arrows="1" fold="1" page="1" pageScale="1" pageWidth="827" pageHeight="1169" math="0" shadow="0">
      <root>
        <mxCell id="WIyWlLk6GJQsqaUBKTNV-0" />
        <mxCell id="WIyWlLk6GJQsqaUBKTNV-1" parent="WIyWlLk6GJQsqaUBKTNV-0" />
        <mxCell id="3NLJSnZ2-KA5OY0emuj3-11" value="" style="edgeStyle=orthogonalEdgeStyle;rounded=0;orthogonalLoop=1;jettySize=auto;html=1;" edge="1" parent="WIyWlLk6GJQsqaUBKTNV-1" source="WIyWlLk6GJQsqaUBKTNV-3" target="3NLJSnZ2-KA5OY0emuj3-0">
          <mxGeometry relative="1" as="geometry" />
        </mxCell>
        <mxCell id="WIyWlLk6GJQsqaUBKTNV-3" value="Begin" style="rounded=1;whiteSpace=wrap;html=1;fontSize=20;glass=0;strokeWidth=1;shadow=0;fontFamily=Times New Roman;" parent="WIyWlLk6GJQsqaUBKTNV-1" vertex="1">
          <mxGeometry x="160" y="80" width="120" height="40" as="geometry" />
        </mxCell>
        <mxCell id="3NLJSnZ2-KA5OY0emuj3-12" value="" style="edgeStyle=orthogonalEdgeStyle;rounded=0;orthogonalLoop=1;jettySize=auto;html=1;" edge="1" parent="WIyWlLk6GJQsqaUBKTNV-1" source="3NLJSnZ2-KA5OY0emuj3-0" target="3NLJSnZ2-KA5OY0emuj3-1">
          <mxGeometry relative="1" as="geometry" />
        </mxCell>
        <mxCell id="3NLJSnZ2-KA5OY0emuj3-0" value="Initialize each parameter in&amp;nbsp;the particle swarm" style="rounded=0;whiteSpace=wrap;html=1;fontFamily=Times New Roman;fontSize=20;" vertex="1" parent="WIyWlLk6GJQsqaUBKTNV-1">
          <mxGeometry x="80" y="170" width="280" height="60" as="geometry" />
        </mxCell>
        <mxCell id="3NLJSnZ2-KA5OY0emuj3-13" value="" style="edgeStyle=orthogonalEdgeStyle;rounded=0;orthogonalLoop=1;jettySize=auto;html=1;" edge="1" parent="WIyWlLk6GJQsqaUBKTNV-1" source="3NLJSnZ2-KA5OY0emuj3-1" target="3NLJSnZ2-KA5OY0emuj3-2">
          <mxGeometry relative="1" as="geometry" />
        </mxCell>
        <mxCell id="3NLJSnZ2-KA5OY0emuj3-1" value="Using chaotic map to initialize the velocity and position of particles" style="rounded=0;whiteSpace=wrap;html=1;fontFamily=Times New Roman;fontSize=20;" vertex="1" parent="WIyWlLk6GJQsqaUBKTNV-1">
          <mxGeometry x="80" y="260" width="280" height="60" as="geometry" />
        </mxCell>
        <mxCell id="3NLJSnZ2-KA5OY0emuj3-14" value="" style="edgeStyle=orthogonalEdgeStyle;rounded=0;orthogonalLoop=1;jettySize=auto;html=1;" edge="1" parent="WIyWlLk6GJQsqaUBKTNV-1" source="3NLJSnZ2-KA5OY0emuj3-2" target="3NLJSnZ2-KA5OY0emuj3-3">
          <mxGeometry relative="1" as="geometry" />
        </mxCell>
        <mxCell id="3NLJSnZ2-KA5OY0emuj3-2" value="Discretization and calculation&amp;nbsp;of particle fitness value" style="rounded=0;whiteSpace=wrap;html=1;fontFamily=Times New Roman;fontSize=20;" vertex="1" parent="WIyWlLk6GJQsqaUBKTNV-1">
          <mxGeometry x="80" y="350" width="280" height="60" as="geometry" />
        </mxCell>
        <mxCell id="3NLJSnZ2-KA5OY0emuj3-16" value="" style="edgeStyle=orthogonalEdgeStyle;rounded=0;orthogonalLoop=1;jettySize=auto;html=1;" edge="1" parent="WIyWlLk6GJQsqaUBKTNV-1" source="3NLJSnZ2-KA5OY0emuj3-3" target="3NLJSnZ2-KA5OY0emuj3-4">
          <mxGeometry relative="1" as="geometry" />
        </mxCell>
        <mxCell id="3NLJSnZ2-KA5OY0emuj3-3" value="Calculate individual optimal value and global optimal value" style="rounded=0;whiteSpace=wrap;html=1;fontFamily=Times New Roman;fontSize=20;" vertex="1" parent="WIyWlLk6GJQsqaUBKTNV-1">
          <mxGeometry x="60" y="440" width="320" height="60" as="geometry" />
        </mxCell>
        <mxCell id="3NLJSnZ2-KA5OY0emuj3-17" value="" style="edgeStyle=orthogonalEdgeStyle;rounded=0;orthogonalLoop=1;jettySize=auto;html=1;" edge="1" parent="WIyWlLk6GJQsqaUBKTNV-1" source="3NLJSnZ2-KA5OY0emuj3-4" target="3NLJSnZ2-KA5OY0emuj3-5">
          <mxGeometry relative="1" as="geometry" />
        </mxCell>
        <mxCell id="3NLJSnZ2-KA5OY0emuj3-4" value="Update the particle velocity information and particle position information according to the improved inertia weight and learning factor" style="rounded=0;whiteSpace=wrap;html=1;fontFamily=Times New Roman;fontSize=20;" vertex="1" parent="WIyWlLk6GJQsqaUBKTNV-1">
          <mxGeometry x="-10" y="530" width="460" height="80" as="geometry" />
        </mxCell>
        <mxCell id="3NLJSnZ2-KA5OY0emuj3-18" value="" style="edgeStyle=orthogonalEdgeStyle;rounded=0;orthogonalLoop=1;jettySize=auto;html=1;" edge="1" parent="WIyWlLk6GJQsqaUBKTNV-1" source="3NLJSnZ2-KA5OY0emuj3-5" target="3NLJSnZ2-KA5OY0emuj3-6">
          <mxGeometry relative="1" as="geometry" />
        </mxCell>
        <mxCell id="3NLJSnZ2-KA5OY0emuj3-5" value="Perform boundary processing&amp;nbsp;and discretization" style="rounded=0;whiteSpace=wrap;html=1;fontFamily=Times New Roman;fontSize=20;" vertex="1" parent="WIyWlLk6GJQsqaUBKTNV-1">
          <mxGeometry x="75" y="650" width="290" height="60" as="geometry" />
        </mxCell>
        <mxCell id="3NLJSnZ2-KA5OY0emuj3-19" value="" style="edgeStyle=orthogonalEdgeStyle;rounded=0;orthogonalLoop=1;jettySize=auto;html=1;" edge="1" parent="WIyWlLk6GJQsqaUBKTNV-1" source="3NLJSnZ2-KA5OY0emuj3-6" target="3NLJSnZ2-KA5OY0emuj3-7">
          <mxGeometry relative="1" as="geometry" />
        </mxCell>
        <mxCell id="3NLJSnZ2-KA5OY0emuj3-6" value="Calculate individual optimal value and global Calculate the fitness value and update the individual extreme value and global extreme value" style="rounded=0;whiteSpace=wrap;html=1;fontFamily=Times New Roman;fontSize=20;" vertex="1" parent="WIyWlLk6GJQsqaUBKTNV-1">
          <mxGeometry x="-10" y="740" width="460" height="80" as="geometry" />
        </mxCell>
        <mxCell id="3NLJSnZ2-KA5OY0emuj3-20" value="" style="edgeStyle=orthogonalEdgeStyle;rounded=0;orthogonalLoop=1;jettySize=auto;html=1;" edge="1" parent="WIyWlLk6GJQsqaUBKTNV-1" source="3NLJSnZ2-KA5OY0emuj3-7" target="3NLJSnZ2-KA5OY0emuj3-8">
          <mxGeometry relative="1" as="geometry" />
        </mxCell>
        <mxCell id="3NLJSnZ2-KA5OY0emuj3-7" value="Cauchy variation based&amp;nbsp;on fitness variance" style="rounded=0;whiteSpace=wrap;html=1;fontFamily=Times New Roman;fontSize=20;" vertex="1" parent="WIyWlLk6GJQsqaUBKTNV-1">
          <mxGeometry x="80" y="860" width="280" height="60" as="geometry" />
        </mxCell>
        <mxCell id="3NLJSnZ2-KA5OY0emuj3-21" value="" style="edgeStyle=orthogonalEdgeStyle;rounded=0;orthogonalLoop=1;jettySize=auto;html=1;fontFamily=Times New Roman;fontSize=20;" edge="1" parent="WIyWlLk6GJQsqaUBKTNV-1" source="3NLJSnZ2-KA5OY0emuj3-8" target="3NLJSnZ2-KA5OY0emuj3-9">
          <mxGeometry relative="1" as="geometry" />
        </mxCell>
        <mxCell id="3NLJSnZ2-KA5OY0emuj3-8" value="Update the global optimal value according to the mutation particles generated after Cauchy mutation" style="rounded=0;whiteSpace=wrap;html=1;fontFamily=Times New Roman;fontSize=20;" vertex="1" parent="WIyWlLk6GJQsqaUBKTNV-1">
          <mxGeometry x="45" y="960" width="350" height="80" as="geometry" />
        </mxCell>
        <mxCell id="3NLJSnZ2-KA5OY0emuj3-22" value="" style="edgeStyle=orthogonalEdgeStyle;rounded=0;orthogonalLoop=1;jettySize=auto;html=1;fontFamily=Times New Roman;fontSize=20;" edge="1" parent="WIyWlLk6GJQsqaUBKTNV-1" source="3NLJSnZ2-KA5OY0emuj3-9" target="3NLJSnZ2-KA5OY0emuj3-10">
          <mxGeometry relative="1" as="geometry" />
        </mxCell>
        <mxCell id="3NLJSnZ2-KA5OY0emuj3-9" value="Maximum iterations" style="strokeWidth=2;html=1;shape=mxgraph.flowchart.decision;whiteSpace=wrap;fontFamily=Times New Roman;fontSize=20;" vertex="1" parent="WIyWlLk6GJQsqaUBKTNV-1">
          <mxGeometry x="105" y="1079" width="230" height="281" as="geometry" />
        </mxCell>
        <mxCell id="3NLJSnZ2-KA5OY0emuj3-10" value="End" style="rounded=1;whiteSpace=wrap;html=1;fontSize=20;glass=0;strokeWidth=1;shadow=0;fontFamily=Times New Roman;" vertex="1" parent="WIyWlLk6GJQsqaUBKTNV-1">
          <mxGeometry x="160" y="1220" width="120" height="40" as="geometry" />
        </mxCell>
        <mxCell id="3NLJSnZ2-KA5OY0emuj3-23" value="" style="endArrow=classic;html=1;rounded=0;exitX=1;exitY=0.5;exitDx=0;exitDy=0;exitPerimeter=0;" edge="1" parent="WIyWlLk6GJQsqaUBKTNV-1" source="3NLJSnZ2-KA5OY0emuj3-9">
          <mxGeometry width="50" height="50" relative="1" as="geometry">
            <mxPoint x="570" y="1160" as="sourcePoint" />
            <mxPoint x="220" y="510" as="targetPoint" />
            <Array as="points">
              <mxPoint x="510" y="1124" />
              <mxPoint x="510" y="510" />
            </Array>
          </mxGeometry>
        </mxCell>
        <mxCell id="3NLJSnZ2-KA5OY0emuj3-24" value="Yes" style="text;html=1;align=center;verticalAlign=middle;resizable=0;points=[];autosize=1;strokeColor=none;fillColor=none;fontFamily=Times New Roman;fontSize=20;" vertex="1" parent="WIyWlLk6GJQsqaUBKTNV-1">
          <mxGeometry x="235" y="1173" width="50" height="40" as="geometry" />
        </mxCell>
        <mxCell id="3NLJSnZ2-KA5OY0emuj3-25" value="No" style="text;html=1;align=center;verticalAlign=middle;resizable=0;points=[];autosize=1;strokeColor=none;fillColor=none;fontFamily=Times New Roman;fontSize=20;" vertex="1" parent="WIyWlLk6GJQsqaUBKTNV-1">
          <mxGeometry x="405" y="1073" width="50" height="40" as="geometry" />
        </mxCell>
      </root>
    </mxGraphModel>
  </diagram>
</mxfile>
